# xmcd CD database file
#
# Track frame offsets:
#	150
#	9117
#	20603
#	31123
#	44384
#	59517
#	73798
#	89789
#	103488
#	117042
#	139542
#	149988
#	164055
#	179009
#	190678
#	199667
#	211254
#	224040
#	243333
#	254776
#
# Disc length: 4497 seconds
#
# Revision: 0
# Processed by: cddbd v1.5.2PL0 Copyright (c) Steve Scherf et al.
# Submitted via: CDex 1.51
#
DISCID=40118f14
DTITLE=Oscar Peterson - Back Home Again CD 4
DYEAR=1900
DGENRE=Jazz
TTITLE0=Mumbles
TTITLE1=Pennies From Heaven
TTITLE2=Mas Que Nada
TTITLE3=Tea For Two
TTITLE4=I Surrender Dear
TTITLE5=Deep Purple
TTITLE6=I'll Remember April
TTITLE7=Stairway To The Stars
TTITLE8=The Way You Look Tonight
TTITLE9=I Want A Little Girl
TTITLE10=I'm Forever Blowing Bubbles
TTITLE11=Love Walked In
TTITLE12=Yesterdays
TTITLE13=The Man I Love
TTITLE14=Just You
TTITLE15=To A Wild Rose
TTITLE16=Salute To Garner
TTITLE17=Topsy
TTITLE18=Smiles
TTITLE19=Jam Session Blues
EXTD=
EXTT0=
EXTT1=
EXTT2=
EXTT3=
EXTT4=
EXTT5=
EXTT6=
EXTT7=
EXTT8=
EXTT9=
EXTT10=
EXTT11=
EXTT12=
EXTT13=
EXTT14=
EXTT15=
EXTT16=
EXTT17=
EXTT18=
EXTT19=
PLAYORDER=
